<svg width="56" height="56" viewBox="0 0 56 56" fill="none" xmlns="http://www.w3.org/2000/svg">
<path d="M28.0248 42.0009H27.9848C27.8609 42.0009 15.4651 41.9769 12.3377 41.1276C10.618 40.6643 9.27495 39.3205 8.81263 37.6005C8.25026 34.4279 7.97869 31.2105 8.0013 27.9884C7.98677 24.7611 8.26569 21.5392 8.83462 18.3624C9.30964 16.6408 10.6468 15.2908 12.3637 14.7993C15.4052 14 27.4592 14 27.9708 14H28.0128C28.1387 14 40.5664 14.024 43.6619 14.8733C45.378 15.3389 46.7183 16.68 47.183 18.3964C47.7632 21.5808 48.0356 24.8137 47.9963 28.0504C48.0103 31.2738 47.7307 34.4918 47.161 37.6645C46.6927 39.3823 45.3488 40.7232 43.6299 41.1876C40.5924 41.9929 28.5363 42.0009 28.0248 42.0009ZM24.0281 22.0034L24.0181 33.9935L34.4335 27.9984L24.0281 22.0034Z" fill="white"/>
</svg>
