<svg width="56" height="56" viewBox="0 0 56 56" fill="none" xmlns="http://www.w3.org/2000/svg">
<path d="M30.2222 48H21.3333V21.3333H30.2222V25.7778C32.1169 23.3672 34.9902 21.9302 38.0555 21.86C43.5679 21.8906 48.0159 26.3764 48 31.8889V48H39.111V33C38.7556 30.517 36.6261 28.6746 34.1177 28.68C33.0206 28.7147 31.9849 29.1951 31.2498 30.0103C30.5147 30.8255 30.1436 31.9051 30.2222 33V48ZM16.8889 48H8V21.3333H16.8889V48ZM12.4444 16.8889C9.98984 16.8889 8 14.899 8 12.4444C8 9.98985 9.98984 8 12.4444 8C14.899 8 16.8889 9.98985 16.8889 12.4444C16.8889 13.6232 16.4206 14.7536 15.5871 15.5871C14.7536 16.4206 13.6232 16.8889 12.4444 16.8889Z" fill="white"/>
</svg>
