<svg width="56" height="56" viewBox="0 0 56 56" fill="none" xmlns="http://www.w3.org/2000/svg">
<path d="M8 28.1204C8.00233 38.0197 15.1566 46.4486 24.8734 48V33.9359H19.7996V28.1204H24.8794V23.6933C24.6523 21.5955 25.3644 19.5048 26.8226 17.9882C28.2808 16.4716 30.3339 15.6863 32.4252 15.8453C33.9262 15.8696 35.4234 16.0042 36.905 16.2477V21.196H34.3771C33.5068 21.0813 32.6319 21.3705 31.9987 21.9821C31.3656 22.5938 31.0427 23.4616 31.1212 24.3412V28.1204H36.663L35.777 33.938H31.1212V48C41.6298 46.329 48.9988 36.6722 47.8896 26.0257C46.7805 15.3791 37.5815 7.46987 26.957 8.02778C16.3324 8.58569 8.00169 17.4155 8 28.1204Z" fill="white"/>
</svg>
