<svg width="56" height="56" viewBox="0 0 56 56" fill="none" xmlns="http://www.w3.org/2000/svg">
<path d="M43.2883 17.1232C45.0025 16.0985 46.2851 14.4848 46.8966 12.5836C45.2859 13.5393 43.5235 14.2126 41.6858 14.5742C39.1379 11.879 35.1011 11.2231 31.831 12.973C28.5608 14.723 26.867 18.4455 27.696 22.0606C21.098 21.7294 14.9509 18.6127 10.7842 13.4862C8.60969 17.2369 9.72092 22.0315 13.3236 24.4433C12.0209 24.4014 10.747 24.0486 9.60818 23.4145C9.60818 23.4489 9.60818 23.4833 9.60818 23.5177C9.60894 27.4247 12.3625 30.7901 16.192 31.5644C14.9836 31.8932 13.716 31.9416 12.4861 31.7059C13.5631 35.0471 16.6424 37.3361 20.1522 37.4043C17.2453 39.6859 13.6554 40.9232 9.96003 40.9171C9.30504 40.9181 8.65056 40.8804 8 40.8043C11.7525 43.2157 16.12 44.4956 20.5806 44.4911C26.7862 44.5337 32.75 42.0872 37.138 37.6989C41.526 33.3105 43.972 27.3465 43.9289 21.1408C43.9289 20.7852 43.9206 20.4314 43.904 20.0795C45.5111 18.9181 46.8982 17.4792 48 15.8306C46.5028 16.4942 44.9146 16.93 43.2883 17.1232Z" fill="white"/>
</svg>
