<svg width="56" height="56" viewBox="0 0 56 56" fill="none" xmlns="http://www.w3.org/2000/svg">
<path d="M27.9889 48.0577C22.5253 48.0577 21.8812 48.0289 19.749 47.9356C18.0863 47.8809 16.4452 47.5429 14.8962 46.9361C12.2161 45.8932 10.0969 43.7732 9.05497 41.0927C8.47153 39.5381 8.15684 37.8956 8.12438 36.2354C8 34.1077 8 33.4103 8 27.9889C8 22.5097 8.02887 21.8701 8.12438 19.749C8.15755 18.0911 8.47223 16.4509 9.05497 14.8984C10.0958 12.2144 12.2184 10.0926 14.9028 9.05275C16.4545 8.46686 18.0952 8.15135 19.7535 8.11993C21.8745 8 22.5719 8 27.9889 8C33.4969 8 34.1299 8.02887 36.2288 8.11993C37.8914 8.15162 39.5364 8.4671 41.0927 9.05275C43.7764 10.0937 45.8986 12.2152 46.9406 14.8984C47.5339 16.4735 47.8502 18.1394 47.8756 19.8223C48 21.95 48 22.6452 48 28.0644C48 33.4836 47.9689 34.1943 47.8756 36.2976C47.8426 37.9594 47.5271 39.6034 46.9428 41.1594C45.8982 43.8417 43.7758 45.9624 41.0927 47.005C39.5386 47.5873 37.897 47.902 36.2376 47.9356C34.1166 48.0577 33.4214 48.0577 27.9889 48.0577ZM27.9134 11.5158C22.4808 11.5158 21.9167 11.5425 19.7957 11.638C18.5297 11.6548 17.2759 11.8884 16.0888 12.3287C14.3359 12.9995 12.9489 14.3809 12.271 16.131C11.8272 17.331 11.5936 18.5985 11.5802 19.8778C11.4625 22.03 11.4625 22.5941 11.4625 27.9889C11.4625 33.3193 11.4825 33.9656 11.5802 36.1044C11.6001 37.3708 11.8336 38.6248 12.271 39.8134C12.9499 41.5624 14.3367 42.9428 16.0888 43.6136C17.2751 44.0568 18.5294 44.2905 19.7957 44.3043C21.9456 44.4287 22.5119 44.4287 27.9134 44.4287C33.3615 44.4287 33.9256 44.402 36.0289 44.3043C37.2957 44.2889 38.5504 44.0552 39.7379 43.6136C41.4802 42.937 42.8582 41.5598 43.5358 39.8179C43.9787 38.6169 44.2123 37.3488 44.2265 36.0688H44.251C44.3465 33.9456 44.3465 33.3792 44.3465 27.9534C44.3465 22.5275 44.322 21.9567 44.2265 19.8356C44.2066 18.5707 43.9731 17.3182 43.5358 16.131C42.8598 14.3866 41.4816 13.0068 39.7379 12.3287C38.5507 11.8862 37.2958 11.6525 36.0289 11.638C33.8812 11.5158 33.3193 11.5158 27.9134 11.5158ZM27.9889 38.2476C23.8356 38.2503 20.0898 35.7507 18.4983 31.9144C16.9068 28.0781 17.7832 23.6609 20.7188 20.7228C23.6543 17.7848 28.0708 16.9045 31.9084 18.4927C35.746 20.0808 38.249 23.8245 38.2499 27.9778C38.2438 33.6437 33.6548 38.2366 27.9889 38.2476ZM27.9889 21.3104C24.309 21.3104 21.3259 24.2935 21.3259 27.9733C21.3259 31.6532 24.309 34.6363 27.9889 34.6363C31.6687 34.6363 34.6519 31.6532 34.6519 27.9733C34.6433 24.297 31.6652 21.3189 27.9889 21.3104ZM38.6496 19.7268C37.3291 19.7219 36.2619 18.6487 36.2643 17.3282C36.2668 16.0076 37.338 14.9384 38.6585 14.9384C39.9791 14.9384 41.0503 16.0076 41.0527 17.3282C41.0533 17.9653 40.8002 18.5764 40.3493 19.0265C39.8984 19.4766 39.2868 19.7286 38.6496 19.7268Z" fill="white"/>
</svg>
